<?xml version="1.0" encoding="UTF-8" standalone="no"?>
<svg
   height="31.65"
   width="20"
   version="1.1"
   id="svg6"
   sodipodi:docname="effect_enchantment.svg"
   inkscape:version="1.1.2 (b8e25be833, 2022-02-05)"
   xmlns:inkscape="http://www.inkscape.org/namespaces/inkscape"
   xmlns:sodipodi="http://sodipodi.sourceforge.net/DTD/sodipodi-0.dtd"
   xmlns="http://www.w3.org/2000/svg"
   xmlns:svg="http://www.w3.org/2000/svg">
  <defs
     id="defs10" />
  <sodipodi:namedview
     id="namedview8"
     pagecolor="#ffffff"
     bordercolor="#999999"
     borderopacity="1"
     inkscape:pageshadow="0"
     inkscape:pageopacity="0"
     inkscape:pagecheckerboard="0"
     showgrid="false"
     inkscape:zoom="18.565742"
     inkscape:cx="15.377785"
     inkscape:cy="15.727893"
     inkscape:window-width="1920"
     inkscape:window-height="1017"
     inkscape:window-x="1912"
     inkscape:window-y="-8"
     inkscape:window-maximized="1"
     inkscape:current-layer="svg6" />
  <g
     transform="scale(0.625,1)"
     id="g4">
    <path
       d="M 21.1,6.15 Q 20.3,8.5 18.9,10.6 l -2.25,2.7 -0.7,0.7 -0.3,0.25 H 32 q -2.5,5.55 -8.5,9.8 -4.6,3.3 -10.85,5.5 L 8,30.95 4.7,31.6 H 3.45 q 0,-0.15 1.5,-0.5 2.75,-0.65 5.3,-2.85 2.05,-1.75 3.85,-4.35 l 2.35,-4 0.6,-1.3 0.15,-0.45 H 2.6 L 0,15.55 Q 2.3,14 4.2,11.2 5.7,9 6.95,6.1 L 8.4,1.8 8.85,0 H 22.1 q 0,3.2 -1,6.15"
       fill="#a2beff"
       fill-rule="evenodd"
       stroke="none"
       id="path2" />
  </g>
</svg>
