<?xml version="1.0" encoding="UTF-8" standalone="no"?>
<svg xmlns:xlink="http://www.w3.org/1999/xlink" height="136.1px" width="121.4px" xmlns="http://www.w3.org/2000/svg">
  <g transform="matrix(1.0, 0.0, 0.0, 1.0, 14.6, 18.55)">
    <path d="M34.25 -6.65 Q34.25 -11.25 37.85 -14.85 41.3 -18.55 45.8 -18.55 50.95 -18.55 54.55 -14.85 58.15 -11.25 58.15 -6.65 58.15 -1.7 54.3 2.5 51.8 4.5 50.6 4.65 L50.6 37.35 55.15 29.6 54.7 28.65 54.3 27.8 Q53.1 25.4 54.95 22.9 57.55 18.35 62.95 20.8 64.85 21.8 65.5 24.4 66.05 26.8 65.1 28.75 64.0 31.05 61.0 31.75 L59.65 31.75 58.6 31.75 53.7 40.2 82.85 23.3 82.8 21.35 Q82.6 20.45 82.85 19.3 83.55 14.0 88.65 11.15 92.85 8.9 97.55 10.05 102.45 11.2 105.0 15.25 107.15 19.85 106.05 24.7 104.9 29.6 100.45 31.75 97.9 33.05 95.5 33.5 93.2 34.1 90.6 33.05 L88.65 32.0 86.75 30.6 58.2 47.3 68.3 47.3 Q68.3 46.35 69.05 45.4 70.95 43.55 73.65 43.55 79.3 43.55 79.3 49.4 79.3 55.25 73.65 55.25 70.4 55.25 69.05 53.5 68.3 52.2 68.3 51.35 L58.55 51.35 87.35 68.2 Q88.35 67.45 89.35 67.15 L91.4 66.3 Q96.55 64.65 101.0 67.15 105.0 69.65 106.35 74.35 107.7 79.1 105.0 83.5 102.45 88.05 97.55 89.4 92.85 90.75 88.65 88.1 83.55 85.15 82.85 79.2 82.6 78.3 82.8 77.35 L82.85 75.5 53.7 58.55 59.0 67.65 59.65 67.55 61.0 67.65 Q63.9 68.65 65.1 70.35 67.25 75.35 62.95 78.35 57.95 81.1 54.95 76.5 52.8 73.8 54.3 71.15 54.7 70.1 55.7 69.65 L50.6 61.35 50.6 94.45 Q52.95 95.55 54.3 96.8 58.15 100.25 58.15 105.8 58.15 110.4 54.55 114.0 50.95 117.55 45.8 117.55 41.3 117.55 37.85 114.0 34.25 110.4 34.25 105.8 34.25 100.05 38.3 96.35 L40.15 95.25 42.0 94.45 42.0 60.6 36.85 69.65 Q36.7 69.8 37.35 70.2 L37.65 71.15 Q38.7 73.9 37.1 76.5 34.65 81.1 29.7 78.35 24.35 75.35 27.55 70.35 28.9 68.15 31.0 67.65 32.55 67.2 33.4 67.65 L38.5 58.7 8.65 75.5 Q9.35 76.8 9.05 79.2 7.95 85.9 3.4 88.1 -0.7 90.25 -5.5 89.25 -10.3 88.25 -12.75 83.5 -14.7 79.6 -13.5 75.15 -12.35 70.6 -8.4 68.2 -3.65 65.45 1.0 67.15 L3.5 68.2 33.95 51.35 24.0 51.35 23.9 51.9 23.2 53.5 Q22.45 55.25 19.0 55.25 12.75 55.25 12.75 49.4 12.75 43.55 19.0 43.55 21.85 43.55 22.95 45.4 L24.0 47.3 34.25 47.3 3.95 30.6 Q3.95 30.8 1.8 31.75 -2.6 33.9 -8.4 31.75 -12.6 29.6 -14.1 24.7 -15.6 19.9 -12.75 15.6 -10.2 11.3 -5.6 10.5 -1.05 9.65 2.85 11.9 7.0 14.3 8.25 19.7 L8.3 21.4 8.25 23.3 38.25 39.9 33.4 31.75 31.5 31.75 Q28.95 31.75 27.55 28.75 26.0 26.8 26.6 24.4 27.0 21.8 29.1 20.8 34.9 18.55 37.1 22.9 38.5 25.35 37.65 27.8 L37.35 28.65 Q36.7 29.1 36.85 29.6 L42.0 38.55 42.0 4.65 Q41.2 4.6 38.3 2.95 34.25 -1.5 34.25 -6.65" fill="#38ffff" fill-rule="evenodd" stroke="none"/>
  </g>
</svg>
