<?xml version="1.0" encoding="UTF-8" standalone="no"?>
<svg xmlns:xlink="http://www.w3.org/1999/xlink" height="117.85px" width="76.35px" xmlns="http://www.w3.org/2000/svg">
  <g transform="matrix(1.0, 0.0, 0.0, 1.0, -15.45, -11.1)">
    <path d="M42.15 36.05 Q39.45 20.0 53.65 11.1 52.35 17.35 66.2 37.0 80.05 56.6 72.0 74.65 84.35 66.1 81.45 43.25 104.3 82.85 76.6 100.65 48.95 118.35 48.7 128.95 39.65 109.8 49.05 96.1 58.35 82.45 55.15 68.8 48.0 80.95 36.55 90.5 29.0 96.75 32.4 106.75 8.35 84.15 18.45 68.4 28.85 56.2 34.45 43.25 40.45 51.3 38.4 60.85 49.7 53.8 42.15 36.05" fill="#e08300" fill-rule="evenodd" stroke="none"/>
  </g>
</svg>
