<?xml version="1.0" encoding="UTF-8" standalone="no"?>
<svg xmlns:xlink="http://www.w3.org/1999/xlink" height="43.3px" width="43.15px" xmlns="http://www.w3.org/2000/svg">
  <g transform="matrix(1.0, 0.0, 0.0, 1.0, 21.75, 21.55)">
    <path d="M10.4 -12.3 Q10.95 -11.05 12.2 -10.5 21.7 -6.5 21.4 3.6 21.2 11.0 17.6 17.05 L17.55 17.1 17.9 17.3 17.9 17.35 Q18.4 17.75 18.45 18.7 L18.1 20.45 16.95 21.6 15.8 21.45 Q15.3 21.05 15.25 20.15 L15.25 20.0 15.35 19.1 15.45 18.95 15.45 18.9 -18.95 -15.55 -19.05 -15.5 -20.2 -15.4 Q-21.1 -15.45 -21.5 -15.95 -21.95 -16.45 -21.65 -17.1 -21.35 -17.75 -20.5 -18.2 L-18.75 -18.6 Q-17.8 -18.55 -17.4 -18.05 L-17.15 -17.7 -15.2 -18.75 Q-9.95 -21.35 -3.7 -21.55 2.25 -21.7 6.05 -18.5 8.75 -16.25 10.4 -12.3 M10.55 -7.5 Q8.55 -8.55 7.45 -10.65 5.9 -13.95 3.5 -15.95 -0.3 -19.15 -6.2 -19.0 -10.4 -18.85 -14.15 -17.65 -16.0 -17.1 -17.75 -16.2 L-18.05 -16.05 15.95 18.0 16.1 17.65 16.45 16.95 Q18.7 11.95 18.85 6.15 19.15 -3.45 10.55 -7.5" fill="#ffffff" fill-rule="evenodd" stroke="none"/>
  </g>
</svg>
