<?xml version="1.0" encoding="UTF-8" standalone="no"?>
<svg xmlns:xlink="http://www.w3.org/1999/xlink" height="44.85px" width="44.8px" xmlns="http://www.w3.org/2000/svg">
  <g transform="matrix(1.0, 0.0, 0.0, 1.0, 22.4, 22.4)">
    <path d="M-1.65 -7.65 Q-2.45 -8.45 -3.5 -8.45 -4.6 -8.45 -5.35 -7.65 L-1.7 -4.0 Q-0.9 -4.75 -0.9 -5.85 -0.9 -6.9 -1.65 -7.65 M12.4 -6.05 L12.95 -4.7 11.25 -4.95 Q5.15 -5.5 0.25 -2.05 L20.3 18.05 20.95 17.4 22.4 18.85 18.8 22.45 17.35 21.0 18.0 20.35 -2.1 0.25 -2.6 1.0 Q-5.45 5.65 -4.95 11.3 L-4.75 13.05 -6.05 12.45 Q-15.2 8.3 -19.7 1.0 L-19.75 0.95 Q-21.4 -1.7 -22.4 -4.7 L-13.8 -5.05 Q-11.55 -5.8 -9.65 -7.35 L-11.7 -9.4 -11.15 -9.9 -12.0 -12.05 -9.85 -11.25 -9.35 -11.7 -7.35 -9.65 Q-5.8 -11.6 -5.05 -13.8 -3.75 -17.7 -4.7 -22.4 -1.7 -21.4 0.9 -19.8 8.25 -15.25 12.4 -6.05 M-7.7 -1.65 Q-6.9 -0.9 -5.85 -0.9 -4.75 -0.9 -4.0 -1.65 L-7.65 -5.35 Q-8.45 -4.55 -8.45 -3.5 -8.45 -2.4 -7.7 -1.65" fill="#ffffff" fill-rule="evenodd" stroke="none"/>
  </g>
</svg>
