<?xml version="1.0" encoding="UTF-8" standalone="no"?>
<svg xmlns:xlink="http://www.w3.org/1999/xlink" height="44.7px" width="38.25px" xmlns="http://www.w3.org/2000/svg">
  <g transform="matrix(1.0, 0.0, 0.0, 1.0, 19.1, 22.35)">
    <path d="M2.15 -5.5 L-2.1 -1.25 17.0 17.9 17.65 17.25 19.15 18.7 15.5 22.35 14.05 20.9 14.65 20.25 -4.45 1.1 -8.85 5.55 -11.45 2.95 -14.5 6.0 -19.1 1.35 -16.05 -1.7 -18.7 -4.3 -14.25 -8.75 -15.2 -9.7 -12.85 -12.05 -11.9 -11.1 -7.65 -15.35 -7.8 -15.5 Q-9.3 -17.0 -8.1 -18.2 L-3.95 -22.35 9.0 -9.4 4.85 -5.2 Q3.65 -4.0 2.15 -5.5" fill="#ffffff" fill-rule="evenodd" stroke="none"/>
  </g>
</svg>
