<?xml version="1.0" encoding="UTF-8" standalone="no"?>
<svg xmlns:xlink="http://www.w3.org/1999/xlink" height="41.6px" width="31.55px" xmlns="http://www.w3.org/2000/svg">
  <g transform="matrix(1.0, 0.0, 0.0, 1.0, 15.75, 20.8)">
    <path d="M7.3 -4.25 L5.7 -4.45 Q-0.05 -4.95 -4.6 -1.75 L13.85 16.7 14.45 16.1 15.8 17.4 12.4 20.8 11.1 19.45 11.65 18.85 -6.8 0.4 -8.4 2.0 -9.25 1.1 Q-12.3 0.35 -14.9 2.5 -15.5 -0.75 -14.1 -3.75 L-15.45 -5.1 -13.85 -6.7 -15.75 -8.6 -13.6 -10.75 -11.7 -8.85 Q-10.25 -10.7 -9.55 -12.75 -8.35 -16.4 -9.2 -20.8 -6.4 -19.85 -4.0 -18.35 2.85 -14.1 6.75 -5.5 L7.3 -4.25 M-6.4 -3.55 Q-5.7 -4.3 -5.7 -5.3 -5.7 -6.3 -6.4 -7.0 -7.1 -7.75 -8.1 -7.75 -9.1 -7.75 -9.8 -7.0 L-6.4 -3.55" fill="#ffffff" fill-rule="evenodd" stroke="none"/>
  </g>
</svg>
