<?xml version="1.0" encoding="UTF-8" standalone="no"?>
<svg xmlns:xlink="http://www.w3.org/1999/xlink" height="296.9px" width="296.25px" xmlns="http://www.w3.org/2000/svg">
  <g transform="matrix(1.0, 0.0, 0.0, 1.0, 16.3, 7.9)">
    <path d="M88.55 33.45 L89.3 34.75 89.65 35.4 85.45 38.0 72.3 48.85 Q59.15 59.65 59.05 59.5 L55.4 63.0 51.7 66.55 Q38.25 80.1 27.8 95.05 24.35 93.8 21.25 92.35 12.25 88.2 5.4 82.2 -14.4 65.0 -16.3 32.9 18.8 23.5 58.15 -7.9 76.05 11.55 88.55 33.45" fill="#ffffff" fill-rule="evenodd" stroke="none"/>
    <path d="M89.9 44.1 L90.05 44.25 127.85 106.7 Q171.75 157.4 222.3 204.95 253.55 244.35 279.95 289.0 L246.15 283.9 Q223.65 232.2 180.0 192.9 109.4 127.35 64.25 65.8 L89.9 44.1" fill="#836135" fill-rule="evenodd" stroke="none"/>
  </g>
</svg>
