<?xml version="1.0" encoding="UTF-8" standalone="no"?>
<svg xmlns:xlink="http://www.w3.org/1999/xlink" height="41.6px" width="41.75px" xmlns="http://www.w3.org/2000/svg">
  <g transform="matrix(1.0, 0.0, 0.0, 1.0, 20.9, 20.75)">
    <path d="M18.15 20.85 L4.1 6.8 2.75 8.1 -4.85 0.5 0.6 -4.95 8.2 2.65 6.8 4.05 20.85 18.1 18.15 20.85 M9.5 -16.5 L8.7 -16.95 Q4.85 -18.65 0.35 -18.75 -5.7 -18.95 -8.9 -14.5 L-1.5 -7.1 -7.0 -1.6 -14.35 -8.95 -16.65 -6.9 Q-19.1 -3.95 -18.95 0.6 -18.85 3.85 -17.9 6.75 L-16.85 9.5 -16.7 9.75 9.5 -16.5 M12.3 -17.3 Q12.55 -16.8 12.15 -16.4 11.85 -16.05 11.15 -16.0 L11.0 -16.0 10.35 -16.05 10.2 -16.15 -16.35 10.45 -16.25 10.55 -16.2 11.4 Q-16.2 12.1 -16.65 12.45 L-17.5 12.55 -18.35 11.65 Q-18.7 11.0 -18.65 10.25 -18.6 9.55 -18.2 9.25 L-17.95 9.05 -18.8 7.6 Q-20.75 3.5 -20.9 -1.35 -21.05 -5.9 -18.55 -8.9 L-16.25 -10.9 -18.1 -12.75 -18.1 -14.0 -13.9 -18.3 -12.65 -18.3 -10.85 -16.5 Q-7.65 -20.9 -1.55 -20.75 4.15 -20.55 8.75 -17.8 L8.85 -17.75 8.95 -18.0 Q9.3 -18.4 10.05 -18.45 L11.4 -18.2 12.3 -17.3" fill="#ffffff" fill-rule="evenodd" stroke="none"/>
  </g>
</svg>
