<?xml version="1.0" encoding="UTF-8" standalone="no"?>
<svg xmlns:xlink="http://www.w3.org/1999/xlink" height="41.4px" width="41.5px" xmlns="http://www.w3.org/2000/svg">
  <g transform="matrix(1.0, 0.0, 0.0, 1.0, 20.75, 20.7)">
    <path d="M-6.95 -18.35 Q-4.55 -16.0 -4.55 -12.6 -4.55 -11.4 -4.95 -10.3 -5.55 -8.65 -4.95 -8.05 L-2.85 -5.9 -1.45 -7.35 0.2 -5.7 -1.55 -4.0 20.75 18.35 18.45 20.7 -3.85 -1.65 -5.6 0.1 -7.2 -1.5 -5.9 -2.85 -8.55 -5.55 Q-10.65 -7.5 -8.9 -9.35 -7.7 -10.75 -7.7 -12.7 -7.7 -14.75 -9.15 -16.2 -10.6 -17.7 -12.7 -17.7 -14.75 -17.65 -16.2 -16.2 -17.65 -14.75 -17.65 -12.7 -17.65 -10.6 -16.2 -9.15 L-15.65 -8.7 Q-14.6 -7.75 -15.3 -6.6 -16.05 -5.3 -17.15 -5.85 L-18.4 -6.9 Q-20.75 -9.25 -20.75 -12.6 -20.75 -14.9 -19.7 -16.7 L-18.4 -18.35 Q-17.55 -19.2 -16.6 -19.7 -14.85 -20.7 -12.65 -20.7 -9.3 -20.75 -6.95 -18.35" fill="#ffffff" fill-rule="evenodd" stroke="none"/>
  </g>
</svg>
