<?xml version="1.0" encoding="UTF-8" standalone="no"?>
<svg xmlns:xlink="http://www.w3.org/1999/xlink" height="285.45px" width="269.05px" xmlns="http://www.w3.org/2000/svg">
  <g transform="matrix(1.0, 0.0, 0.0, 1.0, 31.1, -15.45)">
    <path d="M39.5 80.95 L39.45 80.85 61.35 63.15 61.4 63.25 Q138.65 22.25 177.1 15.45 124.85 38.75 78.65 79.6 L78.55 79.5 51.75 101.2 51.9 101.35 Q2.4 138.05 -31.1 184.35 -16.5 148.05 39.5 80.95" fill="#ffffff" fill-rule="evenodd" stroke="none"/>
    <path d="M93.7 140.05 Q74.2 128.1 58.45 105.4 L81.5 86.8 Q100.25 106.95 108.0 128.5 L237.95 291.8 Q235.4 300.1 226.75 300.9 L93.7 140.05 M35.65 76.2 L29.2 68.25 51.1 50.5 57.55 58.5 35.65 76.2" fill="#836135" fill-rule="evenodd" stroke="none"/>
  </g>
</svg>
