<?xml version="1.0" encoding="UTF-8" standalone="no"?>
<svg xmlns:xlink="http://www.w3.org/1999/xlink" height="44.9px" width="44.7px" xmlns="http://www.w3.org/2000/svg">
  <g transform="matrix(1.0, 0.0, 0.0, 1.0, 22.35, 22.45)">
    <path d="M-15.4 -22.45 L10.8 3.8 8.75 5.9 10.75 7.9 13.5 5.15 14.05 3.65 14.5 3.3 15.8 3.35 17.15 4.7 Q17.8 5.35 17.15 6.0 L16.8 6.4 15.35 6.85 12.3 9.9 20.15 17.75 20.85 17.05 22.35 18.6 18.55 22.45 17.0 20.9 17.7 20.25 9.85 12.4 6.75 15.45 6.25 16.95 5.95 17.3 5.05 17.6 4.55 17.3 3.25 15.95 2.95 15.5 Q2.8 15.05 3.25 14.55 L3.6 14.25 5.05 13.6 7.85 10.8 5.85 8.85 3.8 10.85 -22.35 -15.5 -22.35 -22.4 -15.4 -22.45" fill="#ffffff" fill-rule="evenodd" stroke="none"/>
  </g>
</svg>
