<?xml version="1.0" encoding="UTF-8" standalone="no"?>
<svg xmlns:xlink="http://www.w3.org/1999/xlink" height="41.55px" width="41.45px" xmlns="http://www.w3.org/2000/svg">
  <g transform="matrix(1.0, 0.0, 0.0, 1.0, 20.75, 20.8)">
    <path d="M1.4 -9.0 L4.45 -8.1 1.4 -7.2 Q1.2 -5.0 0.1 -3.15 L-0.2 -2.7 18.45 16.0 19.15 15.3 20.7 16.8 16.85 20.75 15.3 19.2 15.95 18.5 -2.7 -0.2 -3.1 0.05 Q-5.0 1.25 -7.25 1.45 L-8.15 4.5 -9.05 1.45 Q-11.75 1.2 -13.85 -0.4 L-18.2 1.95 -15.8 -2.4 Q-17.4 -4.5 -17.65 -7.2 L-20.75 -8.1 -17.65 -9.05 Q-17.4 -11.7 -15.8 -13.85 L-18.2 -18.25 -13.8 -15.85 Q-11.7 -17.4 -9.05 -17.65 L-8.15 -20.8 -7.25 -17.65 Q-4.55 -17.45 -2.4 -15.85 L1.95 -18.25 -0.45 -13.85 Q1.2 -11.7 1.4 -9.0" fill="#ffffff" fill-rule="evenodd" stroke="none"/>
  </g>
</svg>
