<?xml version="1.0" encoding="UTF-8" standalone="no"?>
<svg xmlns:xlink="http://www.w3.org/1999/xlink" height="41.45px" width="13.05px" xmlns="http://www.w3.org/2000/svg">
  <g transform="matrix(1.0, 0.0, 0.0, 1.0, 6.5, 20.75)">
    <path d="M5.3 8.9 L5.3 4.1 -5.25 4.1 -5.25 8.9 5.3 8.9 M2.95 -15.35 L3.65 -5.85 4.3 -4.95 Q6.45 -1.6 6.55 0.05 L6.55 15.1 Q6.55 20.7 3.55 20.7 L-3.55 20.7 Q-6.5 20.7 -6.5 15.1 L-6.5 0.05 Q-6.5 -1.55 -4.25 -4.95 L-3.7 -5.85 -2.9 -15.2 Q-3.55 -15.6 -3.55 -16.65 L-2.85 -19.4 -3.35 -19.6 -3.5 -20.05 -3.35 -20.55 -2.85 -20.75 2.75 -20.75 3.2 -20.55 3.45 -20.05 3.2 -19.6 2.75 -19.4 3.4 -16.65 Q3.4 -15.8 2.95 -15.35" fill="#ffffff" fill-rule="evenodd" stroke="none"/>
  </g>
</svg>
