<?xml version="1.0" encoding="UTF-8" standalone="no"?>
<svg xmlns:xlink="http://www.w3.org/1999/xlink" height="41.5px" width="29.2px" xmlns="http://www.w3.org/2000/svg">
  <g transform="matrix(1.0, 0.0, 0.0, 1.0, 14.6, 20.7)">
    <path d="M6.2 -16.8 Q7.0 -16.8 7.55 -16.2 8.15 -15.6 8.15 -14.8 8.15 -14.05 7.55 -13.5 L6.5 -12.85 6.1 -12.15 5.85 -11.95 5.15 -11.75 5.0 -11.75 5.0 -8.5 5.15 -8.5 6.1 -8.15 6.5 -7.25 Q6.5 -6.55 6.1 -6.2 5.7 -5.75 5.15 -5.75 L5.0 -5.75 5.0 -3.75 9.5 -0.25 Q14.45 4.0 14.6 6.0 L14.6 13.75 Q14.6 20.8 7.9 20.8 L-7.95 20.8 Q-12.9 20.8 -14.15 16.9 -14.6 15.55 -14.6 13.75 L-14.6 6.0 Q-14.65 5.4 -14.15 4.6 -13.1 2.75 -9.6 -0.25 L-5.2 -3.75 -5.2 -5.75 -5.25 -5.75 Q-5.85 -5.75 -6.25 -6.2 -6.6 -6.55 -6.6 -7.25 L-6.25 -8.15 Q-5.85 -8.5 -5.25 -8.5 L-5.2 -8.5 -5.2 -11.75 -5.25 -11.75 Q-5.85 -11.75 -6.25 -12.15 L-6.6 -12.85 Q-7.3 -12.9 -7.85 -13.5 -8.45 -14.05 -8.45 -14.8 -8.45 -15.6 -7.85 -16.2 -7.25 -16.8 -6.45 -16.8 L-4.6 -16.8 -4.6 -18.05 Q-4.6 -20.7 -2.25 -20.7 L2.05 -20.7 Q4.35 -20.7 4.35 -18.05 L4.35 -16.8 6.2 -16.8 M4.75 9.55 Q5.25 10.15 5.25 10.85 5.25 12.5 4.4 13.0 4.0 13.35 3.35 13.35 2.65 13.35 2.25 13.0 1.5 12.55 1.5 11.1 1.5 9.0 3.4 9.0 4.3 9.0 4.75 9.55 M5.6 2.6 Q3.4 0.8 0.0 0.8 -3.35 0.8 -5.7 2.6 -7.8 4.45 -7.8 7.45 -7.8 10.0 -7.1 11.15 L-6.2 13.0 Q-6.35 15.3 -4.9 15.65 -3.55 16.05 -2.75 16.7 L-2.5 18.1 2.5 18.1 2.75 16.7 Q3.45 16.0 4.8 15.65 6.3 14.9 6.2 13.1 L6.2 13.0 6.35 12.45 Q7.8 9.85 7.8 7.45 7.8 4.55 5.6 2.6 M0.2 15.2 Q-0.1 15.0 -0.25 15.2 -2.5 16.55 -0.15 13.15 0.0 13.0 0.1 13.15 2.45 16.55 0.2 15.2 M-3.25 9.0 Q-1.4 9.0 -1.4 10.85 -1.4 12.5 -2.2 13.0 -2.65 13.35 -3.25 13.35 L-4.35 13.0 Q-5.1 12.55 -5.1 11.1 -5.1 10.15 -4.7 9.55 -4.2 9.0 -3.25 9.0" fill="#be7dff" fill-rule="evenodd" stroke="none"/>
  </g>
</svg>
