<?xml version="1.0" encoding="UTF-8" standalone="no"?>
<svg xmlns:xlink="http://www.w3.org/1999/xlink" height="41.5px" width="29.05px" xmlns="http://www.w3.org/2000/svg">
  <g transform="matrix(1.0, 0.0, 0.0, 1.0, 14.5, 20.8)">
    <path d="M6.75 -16.3 Q7.3 -15.65 7.3 -14.85 7.3 -14.1 6.75 -13.55 6.3 -13.05 5.8 -12.95 L5.45 -12.25 5.2 -12.0 4.6 -11.8 4.5 -11.8 4.5 -8.6 8.5 -3.6 Q12.9 2.35 13.05 5.25 L14.55 18.1 14.55 18.55 14.4 19.15 Q13.6 20.55 8.7 20.7 L-8.7 20.7 Q-13.55 20.55 -14.35 19.15 L-14.5 18.55 -14.5 18.1 -13.0 5.25 Q-13.1 2.5 -8.55 -3.6 L-4.65 -8.6 -4.65 -11.8 -4.7 -11.8 Q-5.2 -11.8 -5.55 -12.25 L-5.85 -12.95 Q-6.5 -13.0 -7.0 -13.55 L-7.4 -14.25 -7.5 -14.85 -7.4 -15.55 -7.0 -16.3 Q-6.45 -16.85 -5.75 -16.85 L-4.05 -16.85 -4.05 -18.1 Q-4.05 -20.8 -2.0 -20.8 L1.85 -20.8 Q3.9 -20.8 3.9 -18.1 L3.9 -16.85 5.55 -16.85 Q6.25 -16.85 6.75 -16.3 M8.85 6.05 L1.55 0.4 1.55 4.65 6.0 7.8 1.55 11.0 1.55 15.2 8.85 9.55 8.85 6.05 M0.15 6.05 L-7.2 0.4 -7.2 4.65 -2.75 7.8 -7.2 11.0 -7.2 15.2 0.15 9.55 0.15 6.05" fill="#51db2e" fill-rule="evenodd" stroke="none"/>
  </g>
</svg>
