<?xml version="1.0" encoding="UTF-8" standalone="no"?>
<svg xmlns:xlink="http://www.w3.org/1999/xlink" height="41.5px" width="28.15px" xmlns="http://www.w3.org/2000/svg">
  <g transform="matrix(1.0, 0.0, 0.0, 1.0, 14.05, 20.75)">
    <path d="M1.55 -20.75 Q3.3 -20.75 3.3 -18.9 L3.3 -18.05 4.75 -18.05 Q5.3 -18.05 5.75 -17.55 6.25 -16.95 6.25 -16.25 6.25 -15.55 5.75 -15.05 5.35 -14.6 4.95 -14.45 L4.6 -13.85 4.5 -13.65 3.95 -13.45 3.85 -13.45 3.85 -5.45 4.8 -5.2 Q7.65 -4.15 10.0 -1.85 14.1 2.3 14.1 8.15 14.1 14.0 10.0 18.05 8.3 19.75 6.35 20.75 L-6.3 20.75 Q-8.25 19.75 -9.9 18.05 -14.05 14.0 -14.05 8.15 -14.05 2.3 -9.9 -1.85 -7.5 -4.25 -4.4 -5.25 L-3.95 -5.4 -3.95 -13.45 -4.05 -13.45 Q-4.45 -13.45 -4.8 -13.85 L-5.05 -14.45 Q-5.6 -14.55 -6.0 -15.05 -6.45 -15.55 -6.45 -16.25 L-6.0 -17.55 Q-5.55 -18.05 -4.9 -18.05 L-3.5 -18.05 -3.5 -18.9 Q-3.5 -20.75 -1.75 -20.75 L1.55 -20.75" fill="#ffffff" fill-rule="evenodd" stroke="none"/>
  </g>
</svg>
