<?xml version="1.0" encoding="UTF-8" standalone="no"?>
<svg xmlns:xlink="http://www.w3.org/1999/xlink" height="92.45px" width="92.75px" xmlns="http://www.w3.org/2000/svg">
  <g transform="matrix(1.0, 0.0, 0.0, 1.0, -1.0, -1.0)">
    <path d="M91.1 21.3 Q86.5 30.05 79.55 37.55 69.8 49.1 58.85 59.6 45.9 72.5 31.75 84.25 24.9 89.4 16.55 93.0 12.25 94.25 7.7 92.1 1.5 86.8 1.15 78.1 0.55 71.8 2.65 66.2 4.4 59.1 7.9 52.55 L26.3 55.2 Q30.25 55.2 33.25 53.35 29.2 48.25 22.7 47.15 15.8 45.35 9.1 48.4 10.0 44.05 11.75 40.25 14.4 36.1 18.9 34.6 21.35 33.55 23.95 33.0 36.5 34.6 48.8 38.9 52.3 39.05 53.35 36.85 51.9 34.7 49.9 33.25 44.45 29.75 37.7 28.4 31.5 27.05 25.75 28.8 26.8 24.65 29.0 21.4 33.3 17.2 39.35 17.35 L44.1 16.0 Q54.35 17.8 65.35 21.1 67.45 21.1 69.05 18.8 66.3 14.8 60.6 13.75 54.05 11.75 46.75 12.25 49.4 8.6 52.8 6.25 57.85 3.85 62.9 4.4 68.3 2.2 74.1 1.25 80.95 0.1 87.55 3.9 91.25 6.25 93.55 10.6 94.55 16.4 91.1 21.3" fill="#fefefe" fill-rule="evenodd" stroke="none"/>
  </g>
</svg>
