<?xml version="1.0" encoding="UTF-8" standalone="no"?>
<svg xmlns:xlink="http://www.w3.org/1999/xlink" height="41.5px" width="23.85px" xmlns="http://www.w3.org/2000/svg">
  <g transform="matrix(1.0, 0.0, 0.0, 1.0, 11.9, 20.75)">
    <path d="M6.1 -1.85 L1.3 -1.85 -4.75 7.7 0.0 7.7 -5.9 17.05 5.75 5.2 1.65 5.2 6.1 -1.85 M1.4 -20.75 Q3.1 -20.75 3.1 -19.0 L3.1 -18.3 4.25 -18.3 Q4.8 -18.3 5.2 -17.9 L5.6 -16.75 Q5.6 -16.1 5.2 -15.5 L4.45 -15.05 4.1 -14.3 3.55 -14.2 3.5 -14.2 3.5 -9.05 Q12.3 -3.85 11.95 2.35 11.45 11.95 8.15 20.75 L-8.2 20.75 Q-11.4 12.2 -11.9 2.55 -12.25 -3.65 -3.45 -8.9 L-3.45 -14.2 -3.5 -14.2 Q-3.9 -14.2 -4.1 -14.5 -4.35 -14.7 -4.4 -15.05 -4.95 -15.1 -5.25 -15.5 -5.65 -16.1 -5.65 -16.75 L-5.25 -17.9 Q-4.85 -18.3 -4.35 -18.3 L-3.05 -18.3 -3.05 -19.0 Q-3.05 -20.75 -1.5 -20.75 L1.4 -20.75" fill="#eaab00" fill-rule="evenodd" stroke="none"/>
  </g>
</svg>
