<?xml version="1.0" encoding="UTF-8" standalone="no"?>
<svg xmlns:xlink="http://www.w3.org/1999/xlink" height="41.5px" width="23.9px" xmlns="http://www.w3.org/2000/svg">
  <g transform="matrix(1.0, 0.0, 0.0, 1.0, 12.0, 20.75)">
    <path d="M1.35 -20.75 Q3.0 -20.75 3.0 -19.05 L3.0 -18.35 4.2 -18.35 Q4.75 -18.35 5.15 -17.9 L5.55 -16.75 Q5.55 -16.1 5.15 -15.55 L4.45 -15.05 4.05 -14.3 3.5 -14.25 3.45 -14.25 3.45 -9.05 Q12.25 -3.85 11.9 2.35 11.4 12.0 8.15 20.75 L-8.25 20.75 Q-11.45 12.2 -12.0 2.55 -12.3 -3.65 -3.5 -8.9 L-3.5 -14.25 -3.55 -14.25 Q-4.0 -14.25 -4.2 -14.5 L-4.45 -15.05 Q-5.0 -15.1 -5.3 -15.55 -5.7 -16.1 -5.7 -16.75 L-5.3 -17.9 Q-4.9 -18.35 -4.4 -18.35 L-3.1 -18.35 -3.1 -19.05 Q-3.1 -20.75 -1.55 -20.75 L1.35 -20.75 M1.2 -2.15 Q0.65 -2.65 -0.05 -2.65 -0.7 -2.65 -1.15 -2.15 L-1.65 -1.0 Q-1.65 -0.3 -1.1 0.35 L-0.55 0.55 -0.55 5.3 -1.3 4.05 -1.15 3.8 Q-1.05 3.45 -1.25 3.1 -1.55 2.5 -2.4 2.85 L-2.7 3.3 -2.6 3.95 Q-2.4 4.35 -2.05 4.35 L-1.75 4.35 -1.1 5.5 -5.25 3.2 -5.25 2.65 Q-5.45 1.95 -6.0 1.6 -6.55 1.25 -7.2 1.4 -7.85 1.5 -8.15 2.1 -8.55 2.7 -8.4 3.4 L-7.6 4.35 Q-6.8 4.65 -6.15 4.35 L-5.9 4.2 -1.65 6.5 -3.1 6.5 -3.2 6.25 Q-3.35 6.0 -3.75 6.0 -4.65 6.0 -4.65 6.8 -4.65 7.65 -3.75 7.65 L-3.15 7.4 -3.1 7.1 -1.7 7.1 -5.9 9.45 -6.25 9.3 -7.6 9.45 Q-8.15 9.8 -8.3 10.4 L-8.15 11.6 -7.2 12.35 -5.95 12.2 Q-5.3 11.9 -5.15 10.95 -5.1 10.6 -5.2 10.45 L-1.05 8.1 -1.75 9.35 -2.1 9.35 -2.6 9.75 Q-3.05 10.4 -2.3 10.85 -1.6 11.25 -1.25 10.6 -1.0 10.25 -1.15 9.85 L-1.25 9.7 -1.3 9.65 -0.55 8.35 -0.55 13.1 -0.8 13.2 -1.1 13.35 Q-1.65 13.85 -1.65 14.7 L-1.15 15.8 Q-0.7 16.35 -0.05 16.35 0.65 16.35 1.2 15.8 L1.65 14.7 Q1.65 13.9 1.15 13.45 L0.6 13.1 0.6 8.5 1.3 9.65 1.15 9.85 Q0.9 10.2 1.2 10.6 1.65 11.25 2.35 10.85 2.95 10.4 2.6 9.75 L2.1 9.35 1.8 9.35 1.05 8.1 5.1 10.45 5.1 10.95 Q5.2 11.8 5.95 12.2 L7.15 12.4 Q7.85 12.2 8.2 11.6 8.55 10.95 8.35 10.3 8.2 9.65 7.6 9.3 L6.3 9.2 6.0 9.3 Q5.85 9.3 5.75 9.45 L1.75 7.1 3.1 7.1 3.2 7.4 Q3.35 7.65 3.8 7.65 4.6 7.65 4.6 6.8 4.6 6.0 3.8 6.0 3.45 6.0 3.2 6.25 L3.1 6.5 1.7 6.5 5.65 4.2 5.95 4.4 6.2 4.5 6.9 4.6 7.55 4.35 Q8.2 4.05 8.35 3.4 8.5 2.7 8.2 2.1 7.85 1.5 7.15 1.35 L5.95 1.45 Q5.2 1.9 5.1 2.65 L5.1 2.9 5.1 3.2 1.05 5.55 1.75 4.35 2.1 4.35 2.6 3.95 2.7 3.3 2.35 2.85 Q1.6 2.5 1.2 3.1 0.95 3.45 1.15 3.8 L1.25 4.05 0.6 5.15 0.6 0.55 1.15 0.3 Q1.65 -0.3 1.65 -1.0 L1.2 -2.15" fill="#1ffbff" fill-rule="evenodd" stroke="none"/>
  </g>
</svg>
