<?xml version="1.0" encoding="UTF-8" standalone="no"?>
<svg xmlns:xlink="http://www.w3.org/1999/xlink" height="41.45px" width="31.8px" xmlns="http://www.w3.org/2000/svg">
  <g transform="matrix(1.0, 0.0, 0.0, 1.0, 15.9, 20.75)">
    <path d="M6.9 4.75 L1.9 4.75 1.9 -0.25 -2.3 -0.25 -2.3 4.75 -7.25 4.75 -7.25 8.95 -2.3 8.95 -2.3 13.9 1.9 13.9 1.9 8.95 6.9 8.95 6.9 4.75 M1.55 -20.75 Q3.45 -20.75 3.45 -18.75 L3.45 -17.75 4.95 -17.75 Q5.6 -17.75 6.1 -17.2 6.65 -16.6 6.65 -15.8 6.65 -15.05 6.1 -14.5 5.65 -14.05 5.25 -13.85 L4.85 -13.2 4.7 -12.95 4.25 -12.75 4.25 -8.25 5.35 -7.95 Q8.6 -6.85 11.25 -4.2 15.9 0.3 15.9 6.75 15.9 13.2 11.25 17.75 9.35 19.6 7.15 20.7 L-7.15 20.7 Q-9.4 19.6 -11.25 17.75 -15.9 13.2 -15.9 6.75 -15.9 0.3 -11.25 -4.2 -8.55 -6.9 -5.05 -8.0 L-4.5 -8.15 -4.5 -12.75 -4.55 -12.75 Q-5.05 -12.75 -5.4 -13.2 L-5.65 -13.85 Q-6.3 -13.95 -6.75 -14.5 -7.2 -15.05 -7.2 -15.8 -7.2 -16.6 -6.75 -17.2 -6.2 -17.75 -5.55 -17.75 L-4.0 -17.75 -4.0 -18.75 Q-4.0 -20.75 -2.1 -20.75 L1.55 -20.75" fill="#db2e73" fill-rule="evenodd" stroke="none"/>
  </g>
</svg>
