<?xml version="1.0" encoding="UTF-8" standalone="no"?>
<svg xmlns:xlink="http://www.w3.org/1999/xlink" height="41.5px" width="23.8px" xmlns="http://www.w3.org/2000/svg">
  <g transform="matrix(1.0, 0.0, 0.0, 1.0, 11.95, 20.75)">
    <path d="M3.0 -19.0 L3.0 -18.3 4.2 -18.3 Q4.75 -18.3 5.15 -17.9 L5.5 -16.75 Q5.5 -16.1 5.15 -15.5 L4.4 -15.05 4.1 -14.5 4.05 -14.3 3.5 -14.2 3.45 -14.2 3.45 -9.05 Q12.2 -3.9 11.85 2.35 11.35 11.95 8.1 20.75 L-8.25 20.75 Q-11.45 12.15 -11.95 2.5 -12.3 -3.7 -3.5 -8.9 L-3.5 -14.2 -3.55 -14.2 Q-4.0 -14.2 -4.2 -14.5 L-4.45 -15.05 Q-5.0 -15.1 -5.3 -15.5 -5.75 -16.1 -5.75 -16.75 L-5.3 -17.9 Q-4.9 -18.3 -4.4 -18.3 L-3.1 -18.3 -3.1 -19.0 Q-3.1 -20.75 -1.55 -20.75 L1.35 -20.75 Q3.0 -20.75 3.0 -19.0 M3.45 7.7 Q4.9 4.4 2.35 0.85 -0.15 -2.8 0.1 -3.9 -2.5 -2.25 -2.0 0.65 -0.6 3.9 -2.7 5.15 -2.35 3.4 -3.4 1.95 -4.45 4.35 -6.3 6.55 -8.15 9.4 -3.8 13.55 -4.4 11.7 -3.0 10.55 -0.95 8.85 0.35 6.6 0.95 9.1 -0.75 11.6 -2.45 14.1 -0.8 17.6 -0.75 15.65 4.25 12.4 9.3 9.2 5.15 1.95 5.65 6.15 3.45 7.7" fill="#c73636" fill-rule="evenodd" stroke="none"/>
  </g>
</svg>
