<?xml version="1.0" encoding="UTF-8" standalone="no"?>
<svg xmlns:xlink="http://www.w3.org/1999/xlink" height="293.35px" width="293.15px" xmlns="http://www.w3.org/2000/svg">
  <g transform="matrix(1.0, 0.0, 0.0, 1.0, -44.35, -44.05)">
    <path d="M108.95 94.4 L245.1 230.35 280.45 235.75 328.45 283.75 292.75 278.0 337.5 322.75 322.7 337.4 Q300.2 315.2 278.05 292.55 L283.35 328.5 238.1 283.2 Q236.4 281.2 235.1 279.0 L230.4 245.95 Q230.25 243.95 228.55 243.25 L211.6 226.4 Q184.9 200.3 158.6 173.7 L119.6 134.7 Q106.75 122.4 94.3 109.6 L87.3 116.5 44.35 44.05 115.85 87.65 108.95 94.4" fill="#ffffff" fill-rule="evenodd" stroke="none"/>
  </g>
</svg>
