<?xml version="1.0" encoding="UTF-8" standalone="no"?>
<svg xmlns:xlink="http://www.w3.org/1999/xlink" height="338.95px" width="332.9px" xmlns="http://www.w3.org/2000/svg">
  <g transform="matrix(1.0, 0.0, 0.0, 1.0, -29.65, -28.75)">
    <path d="M362.55 304.75 L308.4 299.2 293.85 313.8 298.35 367.7 234.45 302.05 230.25 248.35 190.0 207.5 159.4 175.9 133.6 149.9 Q123.35 138.85 112.45 128.3 100.4 116.5 88.7 104.35 80.95 111.9 73.55 119.7 51.4 75.05 29.65 30.25 L30.1 28.75 119.3 74.95 103.3 89.5 156.1 143.95 178.8 167.65 Q211.2 201.5 244.2 234.9 L297.9 239.7 344.4 286.4 Q353.25 295.75 362.55 304.75" fill="#ffffff" fill-rule="evenodd" stroke="none"/>
  </g>
</svg>
