<?xml version="1.0" encoding="UTF-8" standalone="no"?>
<svg xmlns:xlink="http://www.w3.org/1999/xlink" height="118.0px" width="116.45px" xmlns="http://www.w3.org/2000/svg">
  <g transform="matrix(1.0, 0.0, 0.0, 1.0, -5.8, -4.95)">
    <path d="M119.95 28.8 Q121.45 29.4 120.1 30.0 L67.3 53.1 Q65.95 53.7 64.45 53.1 L8.15 29.5 Q6.75 28.85 8.15 28.35 L60.9 5.25 Q62.25 4.65 63.7 5.25 L119.95 28.8 M120.9 34.55 Q122.25 33.9 122.25 35.55 L122.25 97.7 Q122.25 99.3 120.9 99.9 L68.75 122.8 Q67.35 123.35 67.35 121.75 L67.35 59.6 Q67.35 58.0 68.75 57.4 L120.9 34.55 M7.2 34.55 L59.35 57.4 Q60.7 58.0 60.7 59.6 L60.7 121.75 Q60.7 123.35 59.35 122.8 L7.2 99.9 Q5.8 99.3 5.8 97.7 L5.8 35.55 Q5.8 33.9 7.2 34.55" fill="#ffffff" fill-rule="evenodd" stroke="none"/>
  </g>
</svg>
