<?xml version="1.0" encoding="UTF-8" standalone="no"?>
<svg xmlns:xlink="http://www.w3.org/1999/xlink" height="22.45px" width="44.85px" xmlns="http://www.w3.org/2000/svg">
  <g transform="matrix(1.0, 0.0, 0.0, 1.0, 22.35, 11.4)">
    <path d="M12.55 -11.4 L12.7 -11.4 15.4 -9.2 15.4 -9.0 12.6 -6.75 9.8 -8.95 9.8 -9.2 Q12.3 -11.4 12.55 -11.4 M22.5 -0.6 L22.45 -0.25 22.45 3.65 22.3 3.8 Q21.75 3.8 21.1 3.05 20.05 2.8 20.05 2.45 L19.45 2.15 19.3 2.15 Q19.05 2.15 18.85 2.35 L16.15 2.15 7.95 2.15 2.1 2.2 Q1.65 2.2 1.45 1.6 3.45 0.95 14.6 0.2 L20.1 -0.65 22.15 -0.85 22.45 -0.65 22.5 -0.6 M22.45 5.85 L22.45 10.2 22.35 10.3 Q21.75 10.3 20.95 9.4 20.3 9.4 19.85 8.8 L19.6 8.7 19.25 8.7 18.85 8.8 16.45 8.6 7.95 8.7 2.1 8.7 Q1.65 8.7 1.45 8.1 L5.0 7.45 16.5 6.2 22.2 5.65 22.45 5.85 M-16.25 -3.4 L-19.1 -5.6 -19.1 -5.85 Q-16.55 -8.05 -16.2 -8.05 L-13.45 -5.85 -13.45 -5.6 -16.25 -3.4 M-0.55 -10.7 Q-2.25 -6.75 -2.45 -6.6 -3.1 -6.6 -3.5 -3.85 L-3.6 -3.8 Q-4.6 -4.0 -4.6 -4.8 L-4.6 -5.9 -4.65 -7.55 -4.25 -8.65 Q-4.25 -9.25 -6.1 -9.5 L-6.85 -10.4 -6.55 -11.25 -6.55 -11.3 -5.4 -10.95 -0.95 -10.95 -0.55 -10.7 M-9.55 -3.55 Q-8.9 -3.35 -6.3 -0.95 -5.4 -0.6 -5.4 -0.15 L-5.35 -0.1 Q-5.35 0.45 -7.25 1.45 L-13.6 6.3 Q-15.05 6.3 -17.1 7.85 L-22.3 11.05 -22.35 10.9 Q-22.35 9.95 -18.75 7.0 -17.85 6.1 -17.4 6.1 L-16.55 6.15 Q-16.0 6.15 -15.8 5.45 L-10.7 1.1 Q-10.5 0.15 -9.9 -0.25 -9.35 -0.4 -9.35 -1.05 L-9.35 -1.1 -10.0 -2.45 Q-9.85 -3.55 -9.6 -3.55 L-9.55 -3.55" fill="#ffffff" fill-rule="evenodd" stroke="none"/>
  </g>
</svg>
