<?xml version="1.0" encoding="UTF-8" standalone="no"?>
<svg xmlns:xlink="http://www.w3.org/1999/xlink" height="40.55px" width="44.45px" xmlns="http://www.w3.org/2000/svg">
  <g transform="matrix(1.0, 0.0, 0.0, 1.0, 22.4, 20.2)">
    <path d="M1.55 17.4 Q4.75 17.5 6.55 10.75 4.15 15.8 1.55 17.4 M-11.05 2.7 Q-11.35 1.2 -12.5 1.65 -11.55 1.5 -11.4 2.6 L-11.5 2.5 -11.2 3.0 -10.2 3.2 Q-8.8 3.1 -9.5 1.35 -9.95 0.25 -11.0 0.5 -10.4 0.45 -9.95 1.35 -9.55 2.6 -10.45 2.75 L-11.05 2.7 M-7.05 -4.8 L-8.0 -4.55 Q-8.3 -3.95 -7.7 -3.3 L-7.45 -3.25 Q-6.1 -2.9 -5.05 -3.25 L-4.55 -3.5 Q-5.5 -4.6 -6.5 -4.8 L-7.05 -4.8 M-9.25 -18.65 L-8.7 -18.4 Q-10.3 -18.7 -12.05 -17.5 L-12.8 -16.8 -13.45 -16.2 -14.55 -14.5 -15.1 -13.3 -15.15 -13.0 -15.65 -10.7 -15.7 -9.85 -15.4 -8.1 Q-14.9 -6.05 -13.45 -5.25 L-14.05 -5.4 Q-15.95 -6.1 -16.6 -8.55 L-16.7 -8.95 -19.0 -8.65 -16.85 -9.95 Q-16.95 -11.7 -16.45 -13.25 L-22.4 -16.5 -15.7 -15.1 Q-15.05 -16.35 -13.85 -17.4 L-14.85 -20.2 -12.95 -18.05 Q-11.05 -19.3 -9.25 -18.65 M12.55 -19.35 Q21.1 -16.5 21.45 -7.8 21.55 -2.35 18.85 1.35 L16.4 4.85 Q13.75 8.35 16.15 12.4 20.05 15.8 22.05 20.35 L-1.45 20.35 Q0.2 18.95 0.8 17.05 -0.4 15.9 -0.75 14.45 -1.8 13.25 -3.2 12.7 L2.85 11.4 Q6.6 9.7 6.5 3.65 6.0 8.9 2.25 10.55 L-5.9 12.2 Q-9.75 13.1 -10.85 11.55 -11.45 10.3 -10.85 8.85 -10.6 7.9 -11.15 7.4 L-11.35 7.15 Q-11.65 6.5 -10.95 5.8 L-9.9 5.95 -9.6 6.05 Q-9.1 6.25 -8.55 5.65 L-9.75 5.6 -10.1 5.45 -11.3 5.5 Q-11.65 5.05 -11.6 4.35 L-11.55 4.0 Q-11.35 2.7 -12.9 2.6 -14.0 2.35 -14.25 1.05 -14.3 0.45 -13.75 -0.05 L-12.45 -1.45 -11.05 -2.9 -10.75 -3.25 Q-9.85 -4.3 -9.85 -5.6 L-9.85 -5.7 Q-10.15 -7.3 -9.2 -8.5 -8.2 -15.15 -2.35 -18.1 5.1 -21.25 12.55 -19.35 M10.55 -2.55 Q11.9 -1.75 11.25 -0.2 10.75 1.0 10.0 1.45 L9.15 2.5 Q8.35 4.2 7.1 3.45 8.35 5.45 9.45 3.25 L10.55 1.9 Q11.55 1.3 12.2 -0.25 13.1 -2.3 11.25 -3.3 9.9 -4.0 8.2 -2.0 9.55 -3.1 10.55 -2.55" fill="#ffffff" fill-rule="evenodd" stroke="none"/>
  </g>
</svg>
