<?xml version="1.0" encoding="UTF-8" standalone="no"?>
<svg xmlns:xlink="http://www.w3.org/1999/xlink" height="35.8px" width="44.85px" xmlns="http://www.w3.org/2000/svg">
  <g transform="matrix(1.0, 0.0, 0.0, 1.0, 22.5, 17.8)">
    <path d="M3.8 -12.55 L2.4 -12.6 Q3.8 -10.25 2.3 -8.4 3.55 -7.8 4.8 -9.05 L4.65 -9.65 Q4.0 -10.2 4.65 -10.2 8.55 -10.3 12.55 -9.25 19.45 -7.7 22.35 -10.4 20.8 -2.3 8.6 -4.1 10.7 -2.5 16.4 -2.5 14.3 2.9 6.55 0.25 6.95 1.8 10.25 2.55 8.25 4.8 4.7 4.35 4.2 3.5 3.35 2.75 5.9 6.55 3.9 10.65 0.6 15.95 0.1 18.0 -1.05 16.0 1.05 12.8 L1.05 12.7 Q2.3 10.55 0.55 9.25 0.55 10.9 -0.5 11.35 -0.35 8.55 -2.4 6.45 -4.45 4.4 -3.4 2.65 -4.25 3.45 -4.55 4.35 -8.1 4.8 -10.15 2.55 -7.3 1.75 -6.4 0.25 -14.2 2.9 -16.25 -2.5 -10.55 -2.5 -8.5 -4.1 -20.65 -2.3 -22.5 -10.95 -19.35 -7.7 -12.4 -9.25 L-4.6 -10.2 Q-4.2 -10.15 -4.5 -9.85 L-4.7 -9.2 Q-3.5 -7.85 -2.2 -8.65 -0.2 -10.65 -2.1 -11.9 L-5.5 -12.35 -4.85 -13.2 Q-6.0 -13.5 -7.15 -12.55 -7.45 -14.05 -5.65 -14.6 -6.0 -16.0 -4.65 -16.0 -1.7 -16.15 -0.45 -17.8 -0.1 -16.95 -0.8 -15.85 1.95 -16.65 3.65 -15.15 1.95 -15.45 1.2 -14.4 3.2 -14.0 3.8 -12.55 M3.15 9.6 Q4.9 6.5 -0.15 3.25 -2.75 5.8 3.15 9.6 M-2.1 -15.05 Q-3.7 -15.6 -4.5 -14.45 -3.1 -13.5 -2.1 -15.05" fill="#ffffff" fill-rule="evenodd" stroke="none"/>
  </g>
</svg>
