<?xml version="1.0" encoding="UTF-8" standalone="no"?>
<svg xmlns:xlink="http://www.w3.org/1999/xlink" height="41.5px" width="25.4px" xmlns="http://www.w3.org/2000/svg">
  <g transform="matrix(1.0, 0.0, 0.0, 1.0, 12.7, 20.75)">
    <path d="M2.8 -18.55 Q2.05 -15.35 4.6 -14.2 1.6 -10.65 1.65 -6.25 1.95 0.05 1.7 6.0 0.3 5.4 -1.15 5.35 -1.8 1.5 -1.35 -2.5 -1.2 -6.05 -2.05 -9.7 -2.95 -12.25 -1.65 -13.95 -1.35 -12.3 0.15 -12.05 1.6 -12.25 1.15 -15.5 0.2 -18.55 0.3 -20.75 1.05 -19.65 2.65 -19.6 3.2 -19.25 2.8 -18.55 M7.5 -17.35 Q9.75 -15.2 8.35 -12.05 4.85 -6.65 5.95 -4.45 7.6 -1.4 9.3 -3.8 9.9 -4.6 9.8 -5.6 12.0 -2.85 9.55 -1.15 4.8 1.5 5.3 4.95 6.0 7.5 5.55 9.05 L4.45 7.85 4.1 7.55 Q3.5 6.85 3.3 5.3 2.7 0.5 2.95 -4.45 3.1 -8.7 6.5 -12.6 8.25 -14.95 7.5 -17.35 M-7.05 -14.85 Q-4.5 -17.05 -4.95 -18.95 -3.2 -16.5 -4.05 -13.75 -5.45 -9.45 -3.1 -8.1 L-2.45 5.4 -5.05 6.0 -5.6 -6.7 Q-5.55 -10.4 -6.1 -11.0 -8.55 -12.55 -7.05 -14.85 M2.15 10.4 L2.35 11.95 Q2.35 14.0 1.05 15.4 -0.25 16.85 -2.1 16.85 -3.9 16.85 -5.25 15.4 -6.55 14.0 -6.55 11.95 -6.55 10.15 -5.45 8.75 -3.5 6.25 -0.7 6.4 1.5 6.65 3.15 8.3 5.25 10.4 5.25 13.45 5.25 16.45 3.15 18.6 1.0 20.75 -2.0 20.75 -5.0 20.75 -7.15 18.6 L-8.55 16.65 Q-9.65 14.95 -9.9 13.2 -10.55 7.3 -9.8 -0.05 -9.4 -7.0 -11.2 -9.35 -12.55 -10.3 -12.7 -11.75 -12.65 -13.0 -10.6 -13.95 -11.6 -12.05 -10.9 -11.55 -5.75 -7.25 -6.55 -1.4 -7.3 4.1 -6.3 7.5 L-6.15 7.95 Q-7.8 9.7 -7.8 12.2 -7.8 14.65 -6.15 16.4 -4.45 18.2 -2.1 18.2 0.3 18.2 1.95 16.4 3.3 15.05 3.3 13.05 3.15 11.45 2.15 10.4 M12.7 1.6 Q10.6 4.6 10.65 9.25 10.75 18.4 4.55 19.3 8.0 16.1 8.2 10.5 8.35 4.9 12.7 1.6" fill="#ffffff" fill-rule="evenodd" stroke="none"/>
  </g>
</svg>
