<?xml version="1.0" encoding="UTF-8" standalone="no"?>
<svg xmlns:xlink="http://www.w3.org/1999/xlink" height="41.55px" width="41.45px" xmlns="http://www.w3.org/2000/svg">
  <g transform="matrix(1.0, 0.0, 0.0, 1.0, 20.8, 20.8)">
    <path d="M17.15 -19.0 Q18.6 -19.0 19.65 -17.85 20.65 -16.75 20.65 -15.15 20.65 -13.55 19.65 -12.45 18.6 -11.3 17.15 -11.3 L16.75 -11.3 16.65 -11.3 16.65 -11.25 Q16.6 -9.4 15.3 -8.1 13.95 -6.7 12.0 -6.7 L11.95 -6.7 Q11.85 -5.9 11.3 -5.35 10.8 -4.85 10.15 -4.75 L10.2 -4.2 Q10.2 -3.3 9.55 -2.65 8.9 -2.0 8.0 -2.0 7.1 -2.0 6.45 -2.65 5.95 -3.15 5.85 -3.8 5.15 -4.25 4.45 -4.15 3.5 -3.95 2.55 -4.15 1.25 11.0 5.3 20.75 L1.95 17.35 -0.75 19.35 -3.6 17.7 -6.75 20.65 Q-2.25 9.2 -4.1 -7.2 -6.2 -6.85 -7.25 -5.15 -9.4 -1.6 -12.1 -4.3 -9.25 -3.25 -7.55 -6.6 -6.8 -8.35 -4.8 -8.6 -5.65 -10.2 -7.5 -9.75 L-9.7 -8.75 Q-11.0 -8.05 -12.15 -7.85 -11.85 -8.5 -12.0 -9.2 -16.7 -8.35 -18.2 -13.25 -18.5 -14.6 -19.65 -15.95 L-20.8 -18.2 Q-19.2 -17.95 -18.5 -15.75 -18.15 -13.95 -17.05 -12.2 -15.4 -9.55 -13.55 -10.4 -12.65 -11.25 -13.55 -14.6 -16.4 -15.1 -17.7 -18.4 L-15.5 -16.5 Q-14.5 -15.65 -13.85 -15.9 -13.15 -16.45 -13.35 -17.35 -13.55 -18.65 -14.1 -19.9 -11.95 -18.45 -12.4 -14.1 -12.5 -12.75 -12.15 -11.45 -11.65 -9.4 -9.75 -10.5 -8.55 -11.15 -9.15 -12.2 L-11.0 -16.3 Q-9.55 -17.5 -11.0 -19.3 -8.0 -17.7 -9.9 -15.65 -9.25 -14.15 -7.9 -12.6 -5.5 -10.45 -4.5 -11.6 -3.8 -13.05 -5.45 -14.9 -7.1 -16.75 -7.0 -18.75 -6.0 -15.55 -3.8 -16.85 -3.8 -16.0 -4.7 -15.55 -3.5 -14.1 -3.4 -11.65 -3.3 -10.15 -2.75 -9.9 -1.2 -10.1 -1.9 -12.25 -2.55 -13.7 -2.55 -15.25 -2.55 -17.55 -0.95 -19.2 0.7 -20.8 3.0 -20.8 5.3 -20.8 6.9 -19.2 7.7 -18.4 8.1 -17.45 L9.2 -17.2 9.75 -17.85 Q11.15 -19.25 13.15 -19.25 14.5 -19.25 15.55 -18.6 16.3 -19.0 17.15 -19.0 M-2.65 16.05 L-0.8 17.85 1.15 15.85 -0.85 12.15 -2.65 16.05" fill="#ffffff" fill-rule="evenodd" stroke="none"/>
  </g>
</svg>
